# xmcd
#
# Track frame offsets:
#	150
#	13002
#	26418
#	44050
#	56543
#	85231
#	102422
#	120875
#	139632
#	156165
#	169509
#	183711
#	201120
#	213210
#	231557
#	242510
#	264329
#	278350
#	298713
#	314948
#
# Disc length: 4373 seconds
#
# Revision: 0
# Processed by: cddbd v1.5.2PL0 Copyright (c) Steve Scherf et al.
# Submitted via: EasyCDDAExtractor 10.2.0.1
#
DISCID=1c111314
DTITLE=Various Artist - Singing News Vol. 4 Disc 2
DYEAR=2003
DGENRE=Gospel
TTITLE0=Kingdom Heirs - I've Passed Over
TTITLE1=Heaven Bound - Canaanland Is Just In Sight
TTITLE2=Kingsmen - I Will Rise Up From My Grave
TTITLE3=Dixie Melody Boys - When I Lay My Burdens Down
TTITLE4=Greater Vision - There Is A River
TTITLE5=Palmetto State Quartet - Good Morning
TTITLE6=Perrys - God Walks The Dark Hills
TTITLE7=Hoppers - Shouting Time
TTITLE8=Poet Voices - Jesus Built A Bridge
TTITLE9=Nelons  - We Shall Wear A Robe And Crown
TTITLE10=Dixe Echoes - I'll Meet You On THe Other Side Of Jordan
TTITLE11=Ruppes - Under His Wings
TTITLE12=Dove Brothers - When I Move To Hallelujah Square
TTITLE13=Wendy Bagwell and The Sunlites - I Firmly Promise You
TTITLE14=Inspirations - Is That Footsteps I Hear
TTITLE15=Gold City - One Scarred Hand
TTITLE16=Cathedrals - I've Read The Back Of The Book
TTITLE17=Crabb Family - Still Holding On
TTITLE18=Florida Boys - When He Was On The Cross
TTITLE19=Mended Wings - Count Me In
EXTD=
EXTT0=
EXTT1=
EXTT2=
EXTT3=
EXTT4=
EXTT5=
EXTT6=
EXTT7=
EXTT8=
EXTT9=
EXTT10=
EXTT11=
EXTT12=
EXTT13=
EXTT14=
EXTT15=
EXTT16=
EXTT17=
EXTT18=
EXTT19=
PLAYORDER=
